<svg height="494" width="720" xmlns="http://www.w3.org/2000/svg">
<rect height="494" fill="#555" width="720"></rect>
<text fill="#7f7" font-family="Courier New" font-size="12" xml:space="preserve">
<tspan x="10" y="26">4 megabytes installed</tspan>
<tspan x="10" y="42"></tspan>
<tspan x="10" y="58">node_modules</tspan>
<tspan x="10" y="74">└─┬ jugglingdb@2.0.0-rc8 </tspan>
<tspan x="10" y="90">  ├── inflection@1.2.7 </tspan>
<tspan x="10" y="106">  ├─┬ mocha@2.5.3 </tspan>
<tspan x="10" y="122">  │ ├── commander@2.3.0 </tspan>
<tspan x="10" y="138">  │ ├─┬ debug@2.2.0 </tspan>
<tspan x="10" y="154">  │ │ └── ms@0.7.1 </tspan>
<tspan x="10" y="170">  │ ├── diff@1.4.0 </tspan>
<tspan x="10" y="186">  │ ├── escape-string-regexp@1.0.2 </tspan>
<tspan x="10" y="202">  │ ├─┬ glob@3.2.11 </tspan>
<tspan x="10" y="218">  │ │ ├── inherits@2.0.3 </tspan>
<tspan x="10" y="234">  │ │ └─┬ minimatch@0.3.0 </tspan>
<tspan x="10" y="250">  │ │   ├── lru-cache@2.7.3 </tspan>
<tspan x="10" y="266">  │ │   └── sigmund@1.0.1 </tspan>
<tspan x="10" y="282">  │ ├── growl@1.9.2 </tspan>
<tspan x="10" y="298">  │ ├─┬ jade@0.26.3 </tspan>
<tspan x="10" y="314">  │ │ ├── commander@0.6.1 </tspan>
<tspan x="10" y="330">  │ │ └── mkdirp@0.3.0 </tspan>
<tspan x="10" y="346">  │ ├─┬ mkdirp@0.5.1 </tspan>
<tspan x="10" y="362">  │ │ └── minimist@0.0.8 </tspan>
<tspan x="10" y="378">  │ ├── supports-color@1.2.0 </tspan>
<tspan x="10" y="394">  │ └── to-iso-string@0.0.2 </tspan>
<tspan x="10" y="410">  ├─┬ should@9.0.2 </tspan>
<tspan x="10" y="426">  │ ├── should-equal@1.0.1 </tspan>
<tspan x="10" y="442">  │ ├── should-format@1.0.0 </tspan>
<tspan x="10" y="458">  │ └── should-type@1.4.0 </tspan>
<tspan x="10" y="474">  └── when@3.7.3</tspan>
</text>
</svg>
